<?xml version="1.0" encoding="utf-8" ?>
<svg baseProfile="tiny" height="500" version="1.2" width="500" xmlns="http://www.w3.org/2000/svg" xmlns:ev="http://www.w3.org/2001/xml-events" xmlns:xlink="http://www.w3.org/1999/xlink"><defs /><path d="M150 200 C 120 180, 180 150, 150 100 C 110 120, 170 90, 140 60" fill="peru" stroke="brown" stroke-width="3" /><path d="M250 300 C 220 270, 280 250, 260 200 C 240 230, 270 200, 230 180" fill="saddlebrown" stroke="brown" stroke-width="3" /><circle cx="50" cy="350" fill="tan" r="5" /><circle cx="50" cy="380" fill="tan" r="5" /><circle cx="50" cy="410" fill="tan" r="5" /><circle cx="50" cy="440" fill="tan" r="5" /><circle cx="90" cy="350" fill="tan" r="5" /><circle cx="90" cy="380" fill="tan" r="5" /><circle cx="90" cy="410" fill="tan" r="5" /><circle cx="90" cy="440" fill="tan" r="5" /><circle cx="130" cy="350" fill="tan" r="5" /><circle cx="130" cy="380" fill="tan" r="5" /><circle cx="130" cy="410" fill="tan" r="5" /><circle cx="130" cy="440" fill="tan" r="5" /><circle cx="170" cy="350" fill="tan" r="5" /><circle cx="170" cy="380" fill="tan" r="5" /><circle cx="170" cy="410" fill="tan" r="5" /><circle cx="170" cy="440" fill="tan" r="5" /><circle cx="210" cy="350" fill="tan" r="5" /><circle cx="210" cy="380" fill="tan" r="5" /><circle cx="210" cy="410" fill="tan" r="5" /><circle cx="210" cy="440" fill="tan" r="5" /><circle cx="250" cy="350" fill="tan" r="5" /><circle cx="250" cy="380" fill="tan" r="5" /><circle cx="250" cy="410" fill="tan" r="5" /><circle cx="250" cy="440" fill="tan" r="5" /><circle cx="290" cy="350" fill="tan" r="5" /><circle cx="290" cy="380" fill="tan" r="5" /><circle cx="290" cy="410" fill="tan" r="5" /><circle cx="290" cy="440" fill="tan" r="5" /><circle cx="330" cy="350" fill="tan" r="5" /><circle cx="330" cy="380" fill="tan" r="5" /><circle cx="330" cy="410" fill="tan" r="5" /><circle cx="330" cy="440" fill="tan" r="5" /><circle cx="370" cy="350" fill="tan" r="5" /><circle cx="370" cy="380" fill="tan" r="5" /><circle cx="370" cy="410" fill="tan" r="5" /><circle cx="370" cy="440" fill="tan" r="5" /><circle cx="410" cy="350" fill="tan" r="5" /><circle cx="410" cy="380" fill="tan" r="5" /><circle cx="410" cy="410" fill="tan" r="5" /><circle cx="410" cy="440" fill="tan" r="5" /><line stroke="darkred" stroke-width="5" x1="100" x2="100" y1="400" y2="300" /><line stroke="gray" stroke-width="2" x1="100" x2="100" y1="300" y2="280" /></svg>